<svg xmlns="http://www.w3.org/2000/svg" width="778" height="130" viewBox="0 0 778 130" role="img" aria-label="172 contribuciones en el ultimo ano">
<style>.lbl{fill:#8b8b96;font:9px -apple-system,Segoe UI,sans-serif}</style>
<text x="54" y="14" class="lbl">Aug</text><text x="124" y="14" class="lbl">Sep</text><text x="180" y="14" class="lbl">Oct</text><text x="236" y="14" class="lbl">Nov</text><text x="306" y="14" class="lbl">Dec</text><text x="362" y="14" class="lbl">Jan</text><text x="418" y="14" class="lbl">Feb</text><text x="474" y="14" class="lbl">Mar</text><text x="544" y="14" class="lbl">Apr</text><text x="600" y="14" class="lbl">May</text><text x="670" y="14" class="lbl">Jun</text><text x="726" y="14" class="lbl">Jul</text><text x="0" y="45" class="lbl">Mon</text><text x="0" y="73" class="lbl">Wed</text><text x="0" y="101" class="lbl">Fri</text><rect x="26" y="22" width="11" height="11" rx="2" fill="#8b8b96" opacity="0.18"><title>2025-07-20: 0</title></rect><rect x="26" y="36" width="11" height="11" rx="2" fill="#8b8b96" opacity="0.18"><title>2025-07-21: 0</title></rect><rect x="26" y="50" width="11" height="11" rx="2" fill="#4a3358"><title>2025-07-22: 1</title></rect><rect x="26" y="64" width="11" height="11" rx="2" fill="#8b8b96" opacity="0.18"><title>2025-07-23: 0</title></rect><rect x="26" y="78" width="11" height="11" rx="2" fill="#8b8b96" opacity="0.18"><title>2025-07-24: 0</title></rect><rect x="26" y="92" width="11" height="11" rx="2" fill="#8b8b96" opacity="0.18"><title>2025-07-25: 0</title></rect><rect x="26" y="106" width="11" height="11" rx="2" fill="#8b8b96" opacity="0.18"><title>2025-07-26: 0</title></rect><rect x="40" y="22" width="11" height="11" rx="2" fill="#9268b8"><title>2025-07-27: 4</title></rect><rect x="40" y="36" width="11" height="11" rx="2" fill="#8b8b96" opacity="0.18"><title>2025-07-28: 0</title></rect><rect x="40" y="50" width="11" height="11" rx="2" fill="#8b8b96" opacity="0.18"><title>2025-07-29: 0</title></rect><rect x="40" y="64" width="11" height="11" rx="2" fill="#6d4a85"><title>2025-07-30: 3</title></rect><rect x="40" y="78" width="11" height="11" rx="2" fill="#b890d9"><title>2025-07-31: 12</title></rect><rect x="40" y="92" width="11" height="11" rx="2" fill="#8b8b96" opacity="0.18"><title>2025-08-01: 0</title></rect><rect x="40" y="106" width="11" height="11" rx="2" fill="#4a3358"><title>2025-08-02: 1</title></rect><rect x="54" y="22" width="11" height="11" rx="2" fill="#8b8b96" opacity="0.18"><title>2025-08-03: 0</title></rect><rect x="54" y="36" width="11" height="11" rx="2" fill="#8b8b96" opacity="0.18"><title>2025-08-04: 0</title></rect><rect x="54" y="50" width="11" height="11" rx="2" fill="#8b8b96" opacity="0.18"><title>2025-08-05: 0</title></rect><rect x="54" y="64" width="11" height="11" rx="2" fill="#6d4a85"><title>2025-08-06: 2</title></rect><rect x="54" y="78" width="11" height="11" rx="2" fill="#8b8b96" opacity="0.18"><title>2025-08-07: 0</title></rect><rect x="54" y="92" width="11" height="11" rx="2" fill="#8b8b96" opacity="0.18"><title>2025-08-08: 0</title></rect><rect x="54" y="106" width="11" height="11" rx="2" fill="#8b8b96" opacity="0.18"><title>2025-08-09: 0</title></rect><rect x="68" y="22" width="11" height="11" rx="2" fill="#8b8b96" opacity="0.18"><title>2025-08-10: 0</title></rect><rect x="68" y="36" width="11" height="11" rx="2" fill="#8b8b96" opacity="0.18"><title>2025-08-11: 0</title></rect><rect x="68" y="50" width="11" height="11" rx="2" fill="#8b8b96" opacity="0.18"><title>2025-08-12: 0</title></rect><rect x="68" y="64" width="11" height="11" rx="2" fill="#8b8b96" opacity="0.18"><title>2025-08-13: 0</title></rect><rect x="68" y="78" width="11" height="11" rx="2" fill="#8b8b96" opacity="0.18"><title>2025-08-14: 0</title></rect><rect x="68" y="92" width="11" height="11" rx="2" fill="#8b8b96" opacity="0.18"><title>2025-08-15: 0</title></rect><rect x="68" y="106" width="11" height="11" rx="2" fill="#8b8b96" opacity="0.18"><title>2025-08-16: 0</title></rect><rect x="82" y="22" width="11" height="11" rx="2" fill="#8b8b96" opacity="0.18"><title>2025-08-17: 0</title></rect><rect x="82" y="36" width="11" height="11" rx="2" fill="#8b8b96" opacity="0.18"><title>2025-08-18: 0</title></rect><rect x="82" y="50" width="11" height="11" rx="2" fill="#8b8b96" opacity="0.18"><title>2025-08-19: 0</title></rect><rect x="82" y="64" width="11" height="11" rx="2" fill="#8b8b96" opacity="0.18"><title>2025-08-20: 0</title></rect><rect x="82" y="78" width="11" height="11" rx="2" fill="#8b8b96" opacity="0.18"><title>2025-08-21: 0</title></rect><rect x="82" y="92" width="11" height="11" rx="2" fill="#8b8b96" opacity="0.18"><title>2025-08-22: 0</title></rect><rect x="82" y="106" width="11" height="11" rx="2" fill="#8b8b96" opacity="0.18"><title>2025-08-23: 0</title></rect><rect x="96" y="22" width="11" height="11" rx="2" fill="#8b8b96" opacity="0.18"><title>2025-08-24: 0</title></rect><rect x="96" y="36" width="11" height="11" rx="2" fill="#8b8b96" opacity="0.18"><title>2025-08-25: 0</title></rect><rect x="96" y="50" width="11" height="11" rx="2" fill="#8b8b96" opacity="0.18"><title>2025-08-26: 0</title></rect><rect x="96" y="64" width="11" height="11" rx="2" fill="#8b8b96" opacity="0.18"><title>2025-08-27: 0</title></rect><rect x="96" y="78" width="11" height="11" rx="2" fill="#8b8b96" opacity="0.18"><title>2025-08-28: 0</title></rect><rect x="96" y="92" width="11" height="11" rx="2" fill="#8b8b96" opacity="0.18"><title>2025-08-29: 0</title></rect><rect x="96" y="106" width="11" height="11" rx="2" fill="#8b8b96" opacity="0.18"><title>2025-08-30: 0</title></rect><rect x="110" y="22" width="11" height="11" rx="2" fill="#8b8b96" opacity="0.18"><title>2025-08-31: 0</title></rect><rect x="110" y="36" width="11" height="11" rx="2" fill="#8b8b96" opacity="0.18"><title>2025-09-01: 0</title></rect><rect x="110" y="50" width="11" height="11" rx="2" fill="#8b8b96" opacity="0.18"><title>2025-09-02: 0</title></rect><rect x="110" y="64" width="11" height="11" rx="2" fill="#8b8b96" opacity="0.18"><title>2025-09-03: 0</title></rect><rect x="110" y="78" width="11" height="11" rx="2" fill="#8b8b96" opacity="0.18"><title>2025-09-04: 0</title></rect><rect x="110" y="92" width="11" height="11" rx="2" fill="#8b8b96" opacity="0.18"><title>2025-09-05: 0</title></rect><rect x="110" y="106" width="11" height="11" rx="2" fill="#8b8b96" opacity="0.18"><title>2025-09-06: 0</title></rect><rect x="124" y="22" width="11" height="11" rx="2" fill="#8b8b96" opacity="0.18"><title>2025-09-07: 0</title></rect><rect x="124" y="36" width="11" height="11" rx="2" fill="#8b8b96" opacity="0.18"><title>2025-09-08: 0</title></rect><rect x="124" y="50" width="11" height="11" rx="2" fill="#8b8b96" opacity="0.18"><title>2025-09-09: 0</title></rect><rect x="124" y="64" width="11" height="11" rx="2" fill="#8b8b96" opacity="0.18"><title>2025-09-10: 0</title></rect><rect x="124" y="78" width="11" height="11" rx="2" fill="#8b8b96" opacity="0.18"><title>2025-09-11: 0</title></rect><rect x="124" y="92" width="11" height="11" rx="2" fill="#8b8b96" opacity="0.18"><title>2025-09-12: 0</title></rect><rect x="124" y="106" width="11" height="11" rx="2" fill="#8b8b96" opacity="0.18"><title>2025-09-13: 0</title></rect><rect x="138" y="22" width="11" height="11" rx="2" fill="#8b8b96" opacity="0.18"><title>2025-09-14: 0</title></rect><rect x="138" y="36" width="11" height="11" rx="2" fill="#8b8b96" opacity="0.18"><title>2025-09-15: 0</title></rect><rect x="138" y="50" width="11" height="11" rx="2" fill="#8b8b96" opacity="0.18"><title>2025-09-16: 0</title></rect><rect x="138" y="64" width="11" height="11" rx="2" fill="#8b8b96" opacity="0.18"><title>2025-09-17: 0</title></rect><rect x="138" y="78" width="11" height="11" rx="2" fill="#8b8b96" opacity="0.18"><title>2025-09-18: 0</title></rect><rect x="138" y="92" width="11" height="11" rx="2" fill="#8b8b96" opacity="0.18"><title>2025-09-19: 0</title></rect><rect x="138" y="106" width="11" height="11" rx="2" fill="#8b8b96" opacity="0.18"><title>2025-09-20: 0</title></rect><rect x="152" y="22" width="11" height="11" rx="2" fill="#8b8b96" opacity="0.18"><title>2025-09-21: 0</title></rect><rect x="152" y="36" width="11" height="11" rx="2" fill="#4a3358"><title>2025-09-22: 1</title></rect><rect x="152" y="50" width="11" height="11" rx="2" fill="#8b8b96" opacity="0.18"><title>2025-09-23: 0</title></rect><rect x="152" y="64" width="11" height="11" rx="2" fill="#6d4a85"><title>2025-09-24: 2</title></rect><rect x="152" y="78" width="11" height="11" rx="2" fill="#8b8b96" opacity="0.18"><title>2025-09-25: 0</title></rect><rect x="152" y="92" width="11" height="11" rx="2" fill="#8b8b96" opacity="0.18"><title>2025-09-26: 0</title></rect><rect x="152" y="106" width="11" height="11" rx="2" fill="#8b8b96" opacity="0.18"><title>2025-09-27: 0</title></rect><rect x="166" y="22" width="11" height="11" rx="2" fill="#8b8b96" opacity="0.18"><title>2025-09-28: 0</title></rect><rect x="166" y="36" width="11" height="11" rx="2" fill="#8b8b96" opacity="0.18"><title>2025-09-29: 0</title></rect><rect x="166" y="50" width="11" height="11" rx="2" fill="#4a3358"><title>2025-09-30: 1</title></rect><rect x="166" y="64" width="11" height="11" rx="2" fill="#8b8b96" opacity="0.18"><title>2025-10-01: 0</title></rect><rect x="166" y="78" width="11" height="11" rx="2" fill="#8b8b96" opacity="0.18"><title>2025-10-02: 0</title></rect><rect x="166" y="92" width="11" height="11" rx="2" fill="#8b8b96" opacity="0.18"><title>2025-10-03: 0</title></rect><rect x="166" y="106" width="11" height="11" rx="2" fill="#8b8b96" opacity="0.18"><title>2025-10-04: 0</title></rect><rect x="180" y="22" width="11" height="11" rx="2" fill="#8b8b96" opacity="0.18"><title>2025-10-05: 0</title></rect><rect x="180" y="36" width="11" height="11" rx="2" fill="#8b8b96" opacity="0.18"><title>2025-10-06: 0</title></rect><rect x="180" y="50" width="11" height="11" rx="2" fill="#8b8b96" opacity="0.18"><title>2025-10-07: 0</title></rect><rect x="180" y="64" width="11" height="11" rx="2" fill="#8b8b96" opacity="0.18"><title>2025-10-08: 0</title></rect><rect x="180" y="78" width="11" height="11" rx="2" fill="#8b8b96" opacity="0.18"><title>2025-10-09: 0</title></rect><rect x="180" y="92" width="11" height="11" rx="2" fill="#8b8b96" opacity="0.18"><title>2025-10-10: 0</title></rect><rect x="180" y="106" width="11" height="11" rx="2" fill="#9268b8"><title>2025-10-11: 4</title></rect><rect x="194" y="22" width="11" height="11" rx="2" fill="#8b8b96" opacity="0.18"><title>2025-10-12: 0</title></rect><rect x="194" y="36" width="11" height="11" rx="2" fill="#8b8b96" opacity="0.18"><title>2025-10-13: 0</title></rect><rect x="194" y="50" width="11" height="11" rx="2" fill="#8b8b96" opacity="0.18"><title>2025-10-14: 0</title></rect><rect x="194" y="64" width="11" height="11" rx="2" fill="#8b8b96" opacity="0.18"><title>2025-10-15: 0</title></rect><rect x="194" y="78" width="11" height="11" rx="2" fill="#8b8b96" opacity="0.18"><title>2025-10-16: 0</title></rect><rect x="194" y="92" width="11" height="11" rx="2" fill="#8b8b96" opacity="0.18"><title>2025-10-17: 0</title></rect><rect x="194" y="106" width="11" height="11" rx="2" fill="#8b8b96" opacity="0.18"><title>2025-10-18: 0</title></rect><rect x="208" y="22" width="11" height="11" rx="2" fill="#8b8b96" opacity="0.18"><title>2025-10-19: 0</title></rect><rect x="208" y="36" width="11" height="11" rx="2" fill="#8b8b96" opacity="0.18"><title>2025-10-20: 0</title></rect><rect x="208" y="50" width="11" height="11" rx="2" fill="#8b8b96" opacity="0.18"><title>2025-10-21: 0</title></rect><rect x="208" y="64" width="11" height="11" rx="2" fill="#8b8b96" opacity="0.18"><title>2025-10-22: 0</title></rect><rect x="208" y="78" width="11" height="11" rx="2" fill="#8b8b96" opacity="0.18"><title>2025-10-23: 0</title></rect><rect x="208" y="92" width="11" height="11" rx="2" fill="#8b8b96" opacity="0.18"><title>2025-10-24: 0</title></rect><rect x="208" y="106" width="11" height="11" rx="2" fill="#8b8b96" opacity="0.18"><title>2025-10-25: 0</title></rect><rect x="222" y="22" width="11" height="11" rx="2" fill="#8b8b96" opacity="0.18"><title>2025-10-26: 0</title></rect><rect x="222" y="36" width="11" height="11" rx="2" fill="#8b8b96" opacity="0.18"><title>2025-10-27: 0</title></rect><rect x="222" y="50" width="11" height="11" rx="2" fill="#8b8b96" opacity="0.18"><title>2025-10-28: 0</title></rect><rect x="222" y="64" width="11" height="11" rx="2" fill="#8b8b96" opacity="0.18"><title>2025-10-29: 0</title></rect><rect x="222" y="78" width="11" height="11" rx="2" fill="#8b8b96" opacity="0.18"><title>2025-10-30: 0</title></rect><rect x="222" y="92" width="11" height="11" rx="2" fill="#8b8b96" opacity="0.18"><title>2025-10-31: 0</title></rect><rect x="222" y="106" width="11" height="11" rx="2" fill="#8b8b96" opacity="0.18"><title>2025-11-01: 0</title></rect><rect x="236" y="22" width="11" height="11" rx="2" fill="#6d4a85"><title>2025-11-02: 2</title></rect><rect x="236" y="36" width="11" height="11" rx="2" fill="#8b8b96" opacity="0.18"><title>2025-11-03: 0</title></rect><rect x="236" y="50" width="11" height="11" rx="2" fill="#6d4a85"><title>2025-11-04: 2</title></rect><rect x="236" y="64" width="11" height="11" rx="2" fill="#b890d9"><title>2025-11-05: 9</title></rect><rect x="236" y="78" width="11" height="11" rx="2" fill="#8b8b96" opacity="0.18"><title>2025-11-06: 0</title></rect><rect x="236" y="92" width="11" height="11" rx="2" fill="#8b8b96" opacity="0.18"><title>2025-11-07: 0</title></rect><rect x="236" y="106" width="11" height="11" rx="2" fill="#8b8b96" opacity="0.18"><title>2025-11-08: 0</title></rect><rect x="250" y="22" width="11" height="11" rx="2" fill="#8b8b96" opacity="0.18"><title>2025-11-09: 0</title></rect><rect x="250" y="36" width="11" height="11" rx="2" fill="#8b8b96" opacity="0.18"><title>2025-11-10: 0</title></rect><rect x="250" y="50" width="11" height="11" rx="2" fill="#8b8b96" opacity="0.18"><title>2025-11-11: 0</title></rect><rect x="250" y="64" width="11" height="11" rx="2" fill="#8b8b96" opacity="0.18"><title>2025-11-12: 0</title></rect><rect x="250" y="78" width="11" height="11" rx="2" fill="#8b8b96" opacity="0.18"><title>2025-11-13: 0</title></rect><rect x="250" y="92" width="11" height="11" rx="2" fill="#8b8b96" opacity="0.18"><title>2025-11-14: 0</title></rect><rect x="250" y="106" width="11" height="11" rx="2" fill="#8b8b96" opacity="0.18"><title>2025-11-15: 0</title></rect><rect x="264" y="22" width="11" height="11" rx="2" fill="#8b8b96" opacity="0.18"><title>2025-11-16: 0</title></rect><rect x="264" y="36" width="11" height="11" rx="2" fill="#8b8b96" opacity="0.18"><title>2025-11-17: 0</title></rect><rect x="264" y="50" width="11" height="11" rx="2" fill="#8b8b96" opacity="0.18"><title>2025-11-18: 0</title></rect><rect x="264" y="64" width="11" height="11" rx="2" fill="#8b8b96" opacity="0.18"><title>2025-11-19: 0</title></rect><rect x="264" y="78" width="11" height="11" rx="2" fill="#8b8b96" opacity="0.18"><title>2025-11-20: 0</title></rect><rect x="264" y="92" width="11" height="11" rx="2" fill="#8b8b96" opacity="0.18"><title>2025-11-21: 0</title></rect><rect x="264" y="106" width="11" height="11" rx="2" fill="#8b8b96" opacity="0.18"><title>2025-11-22: 0</title></rect><rect x="278" y="22" width="11" height="11" rx="2" fill="#8b8b96" opacity="0.18"><title>2025-11-23: 0</title></rect><rect x="278" y="36" width="11" height="11" rx="2" fill="#8b8b96" opacity="0.18"><title>2025-11-24: 0</title></rect><rect x="278" y="50" width="11" height="11" rx="2" fill="#8b8b96" opacity="0.18"><title>2025-11-25: 0</title></rect><rect x="278" y="64" width="11" height="11" rx="2" fill="#8b8b96" opacity="0.18"><title>2025-11-26: 0</title></rect><rect x="278" y="78" width="11" height="11" rx="2" fill="#8b8b96" opacity="0.18"><title>2025-11-27: 0</title></rect><rect x="278" y="92" width="11" height="11" rx="2" fill="#8b8b96" opacity="0.18"><title>2025-11-28: 0</title></rect><rect x="278" y="106" width="11" height="11" rx="2" fill="#8b8b96" opacity="0.18"><title>2025-11-29: 0</title></rect><rect x="292" y="22" width="11" height="11" rx="2" fill="#8b8b96" opacity="0.18"><title>2025-11-30: 0</title></rect><rect x="292" y="36" width="11" height="11" rx="2" fill="#8b8b96" opacity="0.18"><title>2025-12-01: 0</title></rect><rect x="292" y="50" width="11" height="11" rx="2" fill="#8b8b96" opacity="0.18"><title>2025-12-02: 0</title></rect><rect x="292" y="64" width="11" height="11" rx="2" fill="#8b8b96" opacity="0.18"><title>2025-12-03: 0</title></rect><rect x="292" y="78" width="11" height="11" rx="2" fill="#8b8b96" opacity="0.18"><title>2025-12-04: 0</title></rect><rect x="292" y="92" width="11" height="11" rx="2" fill="#8b8b96" opacity="0.18"><title>2025-12-05: 0</title></rect><rect x="292" y="106" width="11" height="11" rx="2" fill="#8b8b96" opacity="0.18"><title>2025-12-06: 0</title></rect><rect x="306" y="22" width="11" height="11" rx="2" fill="#8b8b96" opacity="0.18"><title>2025-12-07: 0</title></rect><rect x="306" y="36" width="11" height="11" rx="2" fill="#8b8b96" opacity="0.18"><title>2025-12-08: 0</title></rect><rect x="306" y="50" width="11" height="11" rx="2" fill="#8b8b96" opacity="0.18"><title>2025-12-09: 0</title></rect><rect x="306" y="64" width="11" height="11" rx="2" fill="#8b8b96" opacity="0.18"><title>2025-12-10: 0</title></rect><rect x="306" y="78" width="11" height="11" rx="2" fill="#8b8b96" opacity="0.18"><title>2025-12-11: 0</title></rect><rect x="306" y="92" width="11" height="11" rx="2" fill="#8b8b96" opacity="0.18"><title>2025-12-12: 0</title></rect><rect x="306" y="106" width="11" height="11" rx="2" fill="#8b8b96" opacity="0.18"><title>2025-12-13: 0</title></rect><rect x="320" y="22" width="11" height="11" rx="2" fill="#8b8b96" opacity="0.18"><title>2025-12-14: 0</title></rect><rect x="320" y="36" width="11" height="11" rx="2" fill="#8b8b96" opacity="0.18"><title>2025-12-15: 0</title></rect><rect x="320" y="50" width="11" height="11" rx="2" fill="#4a3358"><title>2025-12-16: 1</title></rect><rect x="320" y="64" width="11" height="11" rx="2" fill="#8b8b96" opacity="0.18"><title>2025-12-17: 0</title></rect><rect x="320" y="78" width="11" height="11" rx="2" fill="#8b8b96" opacity="0.18"><title>2025-12-18: 0</title></rect><rect x="320" y="92" width="11" height="11" rx="2" fill="#8b8b96" opacity="0.18"><title>2025-12-19: 0</title></rect><rect x="320" y="106" width="11" height="11" rx="2" fill="#8b8b96" opacity="0.18"><title>2025-12-20: 0</title></rect><rect x="334" y="22" width="11" height="11" rx="2" fill="#8b8b96" opacity="0.18"><title>2025-12-21: 0</title></rect><rect x="334" y="36" width="11" height="11" rx="2" fill="#8b8b96" opacity="0.18"><title>2025-12-22: 0</title></rect><rect x="334" y="50" width="11" height="11" rx="2" fill="#8b8b96" opacity="0.18"><title>2025-12-23: 0</title></rect><rect x="334" y="64" width="11" height="11" rx="2" fill="#8b8b96" opacity="0.18"><title>2025-12-24: 0</title></rect><rect x="334" y="78" width="11" height="11" rx="2" fill="#8b8b96" opacity="0.18"><title>2025-12-25: 0</title></rect><rect x="334" y="92" width="11" height="11" rx="2" fill="#8b8b96" opacity="0.18"><title>2025-12-26: 0</title></rect><rect x="334" y="106" width="11" height="11" rx="2" fill="#8b8b96" opacity="0.18"><title>2025-12-27: 0</title></rect><rect x="348" y="22" width="11" height="11" rx="2" fill="#8b8b96" opacity="0.18"><title>2025-12-28: 0</title></rect><rect x="348" y="36" width="11" height="11" rx="2" fill="#8b8b96" opacity="0.18"><title>2025-12-29: 0</title></rect><rect x="348" y="50" width="11" height="11" rx="2" fill="#8b8b96" opacity="0.18"><title>2025-12-30: 0</title></rect><rect x="348" y="64" width="11" height="11" rx="2" fill="#8b8b96" opacity="0.18"><title>2025-12-31: 0</title></rect><rect x="348" y="78" width="11" height="11" rx="2" fill="#8b8b96" opacity="0.18"><title>2026-01-01: 0</title></rect><rect x="348" y="92" width="11" height="11" rx="2" fill="#8b8b96" opacity="0.18"><title>2026-01-02: 0</title></rect><rect x="348" y="106" width="11" height="11" rx="2" fill="#8b8b96" opacity="0.18"><title>2026-01-03: 0</title></rect><rect x="362" y="22" width="11" height="11" rx="2" fill="#8b8b96" opacity="0.18"><title>2026-01-04: 0</title></rect><rect x="362" y="36" width="11" height="11" rx="2" fill="#8b8b96" opacity="0.18"><title>2026-01-05: 0</title></rect><rect x="362" y="50" width="11" height="11" rx="2" fill="#8b8b96" opacity="0.18"><title>2026-01-06: 0</title></rect><rect x="362" y="64" width="11" height="11" rx="2" fill="#8b8b96" opacity="0.18"><title>2026-01-07: 0</title></rect><rect x="362" y="78" width="11" height="11" rx="2" fill="#8b8b96" opacity="0.18"><title>2026-01-08: 0</title></rect><rect x="362" y="92" width="11" height="11" rx="2" fill="#8b8b96" opacity="0.18"><title>2026-01-09: 0</title></rect><rect x="362" y="106" width="11" height="11" rx="2" fill="#8b8b96" opacity="0.18"><title>2026-01-10: 0</title></rect><rect x="376" y="22" width="11" height="11" rx="2" fill="#8b8b96" opacity="0.18"><title>2026-01-11: 0</title></rect><rect x="376" y="36" width="11" height="11" rx="2" fill="#6d4a85"><title>2026-01-12: 3</title></rect><rect x="376" y="50" width="11" height="11" rx="2" fill="#8b8b96" opacity="0.18"><title>2026-01-13: 0</title></rect><rect x="376" y="64" width="11" height="11" rx="2" fill="#8b8b96" opacity="0.18"><title>2026-01-14: 0</title></rect><rect x="376" y="78" width="11" height="11" rx="2" fill="#8b8b96" opacity="0.18"><title>2026-01-15: 0</title></rect><rect x="376" y="92" width="11" height="11" rx="2" fill="#8b8b96" opacity="0.18"><title>2026-01-16: 0</title></rect><rect x="376" y="106" width="11" height="11" rx="2" fill="#6d4a85"><title>2026-01-17: 2</title></rect><rect x="390" y="22" width="11" height="11" rx="2" fill="#8b8b96" opacity="0.18"><title>2026-01-18: 0</title></rect><rect x="390" y="36" width="11" height="11" rx="2" fill="#8b8b96" opacity="0.18"><title>2026-01-19: 0</title></rect><rect x="390" y="50" width="11" height="11" rx="2" fill="#8b8b96" opacity="0.18"><title>2026-01-20: 0</title></rect><rect x="390" y="64" width="11" height="11" rx="2" fill="#8b8b96" opacity="0.18"><title>2026-01-21: 0</title></rect><rect x="390" y="78" width="11" height="11" rx="2" fill="#6d4a85"><title>2026-01-22: 3</title></rect><rect x="390" y="92" width="11" height="11" rx="2" fill="#8b8b96" opacity="0.18"><title>2026-01-23: 0</title></rect><rect x="390" y="106" width="11" height="11" rx="2" fill="#8b8b96" opacity="0.18"><title>2026-01-24: 0</title></rect><rect x="404" y="22" width="11" height="11" rx="2" fill="#8b8b96" opacity="0.18"><title>2026-01-25: 0</title></rect><rect x="404" y="36" width="11" height="11" rx="2" fill="#9268b8"><title>2026-01-26: 4</title></rect><rect x="404" y="50" width="11" height="11" rx="2" fill="#8b8b96" opacity="0.18"><title>2026-01-27: 0</title></rect><rect x="404" y="64" width="11" height="11" rx="2" fill="#8b8b96" opacity="0.18"><title>2026-01-28: 0</title></rect><rect x="404" y="78" width="11" height="11" rx="2" fill="#8b8b96" opacity="0.18"><title>2026-01-29: 0</title></rect><rect x="404" y="92" width="11" height="11" rx="2" fill="#8b8b96" opacity="0.18"><title>2026-01-30: 0</title></rect><rect x="404" y="106" width="11" height="11" rx="2" fill="#9268b8"><title>2026-01-31: 4</title></rect><rect x="418" y="22" width="11" height="11" rx="2" fill="#6d4a85"><title>2026-02-01: 2</title></rect><rect x="418" y="36" width="11" height="11" rx="2" fill="#8b8b96" opacity="0.18"><title>2026-02-02: 0</title></rect><rect x="418" y="50" width="11" height="11" rx="2" fill="#8b8b96" opacity="0.18"><title>2026-02-03: 0</title></rect><rect x="418" y="64" width="11" height="11" rx="2" fill="#8b8b96" opacity="0.18"><title>2026-02-04: 0</title></rect><rect x="418" y="78" width="11" height="11" rx="2" fill="#8b8b96" opacity="0.18"><title>2026-02-05: 0</title></rect><rect x="418" y="92" width="11" height="11" rx="2" fill="#8b8b96" opacity="0.18"><title>2026-02-06: 0</title></rect><rect x="418" y="106" width="11" height="11" rx="2" fill="#8b8b96" opacity="0.18"><title>2026-02-07: 0</title></rect><rect x="432" y="22" width="11" height="11" rx="2" fill="#8b8b96" opacity="0.18"><title>2026-02-08: 0</title></rect><rect x="432" y="36" width="11" height="11" rx="2" fill="#8b8b96" opacity="0.18"><title>2026-02-09: 0</title></rect><rect x="432" y="50" width="11" height="11" rx="2" fill="#8b8b96" opacity="0.18"><title>2026-02-10: 0</title></rect><rect x="432" y="64" width="11" height="11" rx="2" fill="#8b8b96" opacity="0.18"><title>2026-02-11: 0</title></rect><rect x="432" y="78" width="11" height="11" rx="2" fill="#8b8b96" opacity="0.18"><title>2026-02-12: 0</title></rect><rect x="432" y="92" width="11" height="11" rx="2" fill="#8b8b96" opacity="0.18"><title>2026-02-13: 0</title></rect><rect x="432" y="106" width="11" height="11" rx="2" fill="#8b8b96" opacity="0.18"><title>2026-02-14: 0</title></rect><rect x="446" y="22" width="11" height="11" rx="2" fill="#8b8b96" opacity="0.18"><title>2026-02-15: 0</title></rect><rect x="446" y="36" width="11" height="11" rx="2" fill="#8b8b96" opacity="0.18"><title>2026-02-16: 0</title></rect><rect x="446" y="50" width="11" height="11" rx="2" fill="#8b8b96" opacity="0.18"><title>2026-02-17: 0</title></rect><rect x="446" y="64" width="11" height="11" rx="2" fill="#8b8b96" opacity="0.18"><title>2026-02-18: 0</title></rect><rect x="446" y="78" width="11" height="11" rx="2" fill="#8b8b96" opacity="0.18"><title>2026-02-19: 0</title></rect><rect x="446" y="92" width="11" height="11" rx="2" fill="#8b8b96" opacity="0.18"><title>2026-02-20: 0</title></rect><rect x="446" y="106" width="11" height="11" rx="2" fill="#8b8b96" opacity="0.18"><title>2026-02-21: 0</title></rect><rect x="460" y="22" width="11" height="11" rx="2" fill="#8b8b96" opacity="0.18"><title>2026-02-22: 0</title></rect><rect x="460" y="36" width="11" height="11" rx="2" fill="#8b8b96" opacity="0.18"><title>2026-02-23: 0</title></rect><rect x="460" y="50" width="11" height="11" rx="2" fill="#8b8b96" opacity="0.18"><title>2026-02-24: 0</title></rect><rect x="460" y="64" width="11" height="11" rx="2" fill="#8b8b96" opacity="0.18"><title>2026-02-25: 0</title></rect><rect x="460" y="78" width="11" height="11" rx="2" fill="#8b8b96" opacity="0.18"><title>2026-02-26: 0</title></rect><rect x="460" y="92" width="11" height="11" rx="2" fill="#8b8b96" opacity="0.18"><title>2026-02-27: 0</title></rect><rect x="460" y="106" width="11" height="11" rx="2" fill="#4a3358"><title>2026-02-28: 1</title></rect><rect x="474" y="22" width="11" height="11" rx="2" fill="#8b8b96" opacity="0.18"><title>2026-03-01: 0</title></rect><rect x="474" y="36" width="11" height="11" rx="2" fill="#8b8b96" opacity="0.18"><title>2026-03-02: 0</title></rect><rect x="474" y="50" width="11" height="11" rx="2" fill="#8b8b96" opacity="0.18"><title>2026-03-03: 0</title></rect><rect x="474" y="64" width="11" height="11" rx="2" fill="#8b8b96" opacity="0.18"><title>2026-03-04: 0</title></rect><rect x="474" y="78" width="11" height="11" rx="2" fill="#8b8b96" opacity="0.18"><title>2026-03-05: 0</title></rect><rect x="474" y="92" width="11" height="11" rx="2" fill="#8b8b96" opacity="0.18"><title>2026-03-06: 0</title></rect><rect x="474" y="106" width="11" height="11" rx="2" fill="#8b8b96" opacity="0.18"><title>2026-03-07: 0</title></rect><rect x="488" y="22" width="11" height="11" rx="2" fill="#8b8b96" opacity="0.18"><title>2026-03-08: 0</title></rect><rect x="488" y="36" width="11" height="11" rx="2" fill="#8b8b96" opacity="0.18"><title>2026-03-09: 0</title></rect><rect x="488" y="50" width="11" height="11" rx="2" fill="#8b8b96" opacity="0.18"><title>2026-03-10: 0</title></rect><rect x="488" y="64" width="11" height="11" rx="2" fill="#8b8b96" opacity="0.18"><title>2026-03-11: 0</title></rect><rect x="488" y="78" width="11" height="11" rx="2" fill="#8b8b96" opacity="0.18"><title>2026-03-12: 0</title></rect><rect x="488" y="92" width="11" height="11" rx="2" fill="#8b8b96" opacity="0.18"><title>2026-03-13: 0</title></rect><rect x="488" y="106" width="11" height="11" rx="2" fill="#8b8b96" opacity="0.18"><title>2026-03-14: 0</title></rect><rect x="502" y="22" width="11" height="11" rx="2" fill="#8b8b96" opacity="0.18"><title>2026-03-15: 0</title></rect><rect x="502" y="36" width="11" height="11" rx="2" fill="#8b8b96" opacity="0.18"><title>2026-03-16: 0</title></rect><rect x="502" y="50" width="11" height="11" rx="2" fill="#8b8b96" opacity="0.18"><title>2026-03-17: 0</title></rect><rect x="502" y="64" width="11" height="11" rx="2" fill="#8b8b96" opacity="0.18"><title>2026-03-18: 0</title></rect><rect x="502" y="78" width="11" height="11" rx="2" fill="#8b8b96" opacity="0.18"><title>2026-03-19: 0</title></rect><rect x="502" y="92" width="11" height="11" rx="2" fill="#8b8b96" opacity="0.18"><title>2026-03-20: 0</title></rect><rect x="502" y="106" width="11" height="11" rx="2" fill="#8b8b96" opacity="0.18"><title>2026-03-21: 0</title></rect><rect x="516" y="22" width="11" height="11" rx="2" fill="#8b8b96" opacity="0.18"><title>2026-03-22: 0</title></rect><rect x="516" y="36" width="11" height="11" rx="2" fill="#8b8b96" opacity="0.18"><title>2026-03-23: 0</title></rect><rect x="516" y="50" width="11" height="11" rx="2" fill="#8b8b96" opacity="0.18"><title>2026-03-24: 0</title></rect><rect x="516" y="64" width="11" height="11" rx="2" fill="#8b8b96" opacity="0.18"><title>2026-03-25: 0</title></rect><rect x="516" y="78" width="11" height="11" rx="2" fill="#8b8b96" opacity="0.18"><title>2026-03-26: 0</title></rect><rect x="516" y="92" width="11" height="11" rx="2" fill="#8b8b96" opacity="0.18"><title>2026-03-27: 0</title></rect><rect x="516" y="106" width="11" height="11" rx="2" fill="#8b8b96" opacity="0.18"><title>2026-03-28: 0</title></rect><rect x="530" y="22" width="11" height="11" rx="2" fill="#8b8b96" opacity="0.18"><title>2026-03-29: 0</title></rect><rect x="530" y="36" width="11" height="11" rx="2" fill="#8b8b96" opacity="0.18"><title>2026-03-30: 0</title></rect><rect x="530" y="50" width="11" height="11" rx="2" fill="#8b8b96" opacity="0.18"><title>2026-03-31: 0</title></rect><rect x="530" y="64" width="11" height="11" rx="2" fill="#8b8b96" opacity="0.18"><title>2026-04-01: 0</title></rect><rect x="530" y="78" width="11" height="11" rx="2" fill="#8b8b96" opacity="0.18"><title>2026-04-02: 0</title></rect><rect x="530" y="92" width="11" height="11" rx="2" fill="#8b8b96" opacity="0.18"><title>2026-04-03: 0</title></rect><rect x="530" y="106" width="11" height="11" rx="2" fill="#8b8b96" opacity="0.18"><title>2026-04-04: 0</title></rect><rect x="544" y="22" width="11" height="11" rx="2" fill="#8b8b96" opacity="0.18"><title>2026-04-05: 0</title></rect><rect x="544" y="36" width="11" height="11" rx="2" fill="#8b8b96" opacity="0.18"><title>2026-04-06: 0</title></rect><rect x="544" y="50" width="11" height="11" rx="2" fill="#8b8b96" opacity="0.18"><title>2026-04-07: 0</title></rect><rect x="544" y="64" width="11" height="11" rx="2" fill="#8b8b96" opacity="0.18"><title>2026-04-08: 0</title></rect><rect x="544" y="78" width="11" height="11" rx="2" fill="#8b8b96" opacity="0.18"><title>2026-04-09: 0</title></rect><rect x="544" y="92" width="11" height="11" rx="2" fill="#8b8b96" opacity="0.18"><title>2026-04-10: 0</title></rect><rect x="544" y="106" width="11" height="11" rx="2" fill="#8b8b96" opacity="0.18"><title>2026-04-11: 0</title></rect><rect x="558" y="22" width="11" height="11" rx="2" fill="#8b8b96" opacity="0.18"><title>2026-04-12: 0</title></rect><rect x="558" y="36" width="11" height="11" rx="2" fill="#8b8b96" opacity="0.18"><title>2026-04-13: 0</title></rect><rect x="558" y="50" width="11" height="11" rx="2" fill="#8b8b96" opacity="0.18"><title>2026-04-14: 0</title></rect><rect x="558" y="64" width="11" height="11" rx="2" fill="#8b8b96" opacity="0.18"><title>2026-04-15: 0</title></rect><rect x="558" y="78" width="11" height="11" rx="2" fill="#8b8b96" opacity="0.18"><title>2026-04-16: 0</title></rect><rect x="558" y="92" width="11" height="11" rx="2" fill="#8b8b96" opacity="0.18"><title>2026-04-17: 0</title></rect><rect x="558" y="106" width="11" height="11" rx="2" fill="#8b8b96" opacity="0.18"><title>2026-04-18: 0</title></rect><rect x="572" y="22" width="11" height="11" rx="2" fill="#8b8b96" opacity="0.18"><title>2026-04-19: 0</title></rect><rect x="572" y="36" width="11" height="11" rx="2" fill="#8b8b96" opacity="0.18"><title>2026-04-20: 0</title></rect><rect x="572" y="50" width="11" height="11" rx="2" fill="#8b8b96" opacity="0.18"><title>2026-04-21: 0</title></rect><rect x="572" y="64" width="11" height="11" rx="2" fill="#8b8b96" opacity="0.18"><title>2026-04-22: 0</title></rect><rect x="572" y="78" width="11" height="11" rx="2" fill="#8b8b96" opacity="0.18"><title>2026-04-23: 0</title></rect><rect x="572" y="92" width="11" height="11" rx="2" fill="#6d4a85"><title>2026-04-24: 3</title></rect><rect x="572" y="106" width="11" height="11" rx="2" fill="#8b8b96" opacity="0.18"><title>2026-04-25: 0</title></rect><rect x="586" y="22" width="11" height="11" rx="2" fill="#8b8b96" opacity="0.18"><title>2026-04-26: 0</title></rect><rect x="586" y="36" width="11" height="11" rx="2" fill="#8b8b96" opacity="0.18"><title>2026-04-27: 0</title></rect><rect x="586" y="50" width="11" height="11" rx="2" fill="#8b8b96" opacity="0.18"><title>2026-04-28: 0</title></rect><rect x="586" y="64" width="11" height="11" rx="2" fill="#4a3358"><title>2026-04-29: 1</title></rect><rect x="586" y="78" width="11" height="11" rx="2" fill="#8b8b96" opacity="0.18"><title>2026-04-30: 0</title></rect><rect x="586" y="92" width="11" height="11" rx="2" fill="#8b8b96" opacity="0.18"><title>2026-05-01: 0</title></rect><rect x="586" y="106" width="11" height="11" rx="2" fill="#8b8b96" opacity="0.18"><title>2026-05-02: 0</title></rect><rect x="600" y="22" width="11" height="11" rx="2" fill="#8b8b96" opacity="0.18"><title>2026-05-03: 0</title></rect><rect x="600" y="36" width="11" height="11" rx="2" fill="#8b8b96" opacity="0.18"><title>2026-05-04: 0</title></rect><rect x="600" y="50" width="11" height="11" rx="2" fill="#b890d9"><title>2026-05-05: 7</title></rect><rect x="600" y="64" width="11" height="11" rx="2" fill="#8b8b96" opacity="0.18"><title>2026-05-06: 0</title></rect><rect x="600" y="78" width="11" height="11" rx="2" fill="#8b8b96" opacity="0.18"><title>2026-05-07: 0</title></rect><rect x="600" y="92" width="11" height="11" rx="2" fill="#8b8b96" opacity="0.18"><title>2026-05-08: 0</title></rect><rect x="600" y="106" width="11" height="11" rx="2" fill="#8b8b96" opacity="0.18"><title>2026-05-09: 0</title></rect><rect x="614" y="22" width="11" height="11" rx="2" fill="#8b8b96" opacity="0.18"><title>2026-05-10: 0</title></rect><rect x="614" y="36" width="11" height="11" rx="2" fill="#4a3358"><title>2026-05-11: 1</title></rect><rect x="614" y="50" width="11" height="11" rx="2" fill="#8b8b96" opacity="0.18"><title>2026-05-12: 0</title></rect><rect x="614" y="64" width="11" height="11" rx="2" fill="#8b8b96" opacity="0.18"><title>2026-05-13: 0</title></rect><rect x="614" y="78" width="11" height="11" rx="2" fill="#8b8b96" opacity="0.18"><title>2026-05-14: 0</title></rect><rect x="614" y="92" width="11" height="11" rx="2" fill="#9268b8"><title>2026-05-15: 5</title></rect><rect x="614" y="106" width="11" height="11" rx="2" fill="#4a3358"><title>2026-05-16: 1</title></rect><rect x="628" y="22" width="11" height="11" rx="2" fill="#8b8b96" opacity="0.18"><title>2026-05-17: 0</title></rect><rect x="628" y="36" width="11" height="11" rx="2" fill="#8b8b96" opacity="0.18"><title>2026-05-18: 0</title></rect><rect x="628" y="50" width="11" height="11" rx="2" fill="#9268b8"><title>2026-05-19: 4</title></rect><rect x="628" y="64" width="11" height="11" rx="2" fill="#6d4a85"><title>2026-05-20: 3</title></rect><rect x="628" y="78" width="11" height="11" rx="2" fill="#8b8b96" opacity="0.18"><title>2026-05-21: 0</title></rect><rect x="628" y="92" width="11" height="11" rx="2" fill="#9268b8"><title>2026-05-22: 4</title></rect><rect x="628" y="106" width="11" height="11" rx="2" fill="#8b8b96" opacity="0.18"><title>2026-05-23: 0</title></rect><rect x="642" y="22" width="11" height="11" rx="2" fill="#b890d9"><title>2026-05-24: 7</title></rect><rect x="642" y="36" width="11" height="11" rx="2" fill="#6d4a85"><title>2026-05-25: 3</title></rect><rect x="642" y="50" width="11" height="11" rx="2" fill="#8b8b96" opacity="0.18"><title>2026-05-26: 0</title></rect><rect x="642" y="64" width="11" height="11" rx="2" fill="#8b8b96" opacity="0.18"><title>2026-05-27: 0</title></rect><rect x="642" y="78" width="11" height="11" rx="2" fill="#8b8b96" opacity="0.18"><title>2026-05-28: 0</title></rect><rect x="642" y="92" width="11" height="11" rx="2" fill="#8b8b96" opacity="0.18"><title>2026-05-29: 0</title></rect><rect x="642" y="106" width="11" height="11" rx="2" fill="#8b8b96" opacity="0.18"><title>2026-05-30: 0</title></rect><rect x="656" y="22" width="11" height="11" rx="2" fill="#8b8b96" opacity="0.18"><title>2026-05-31: 0</title></rect><rect x="656" y="36" width="11" height="11" rx="2" fill="#8b8b96" opacity="0.18"><title>2026-06-01: 0</title></rect><rect x="656" y="50" width="11" height="11" rx="2" fill="#8b8b96" opacity="0.18"><title>2026-06-02: 0</title></rect><rect x="656" y="64" width="11" height="11" rx="2" fill="#8b8b96" opacity="0.18"><title>2026-06-03: 0</title></rect><rect x="656" y="78" width="11" height="11" rx="2" fill="#8b8b96" opacity="0.18"><title>2026-06-04: 0</title></rect><rect x="656" y="92" width="11" height="11" rx="2" fill="#8b8b96" opacity="0.18"><title>2026-06-05: 0</title></rect><rect x="656" y="106" width="11" height="11" rx="2" fill="#8b8b96" opacity="0.18"><title>2026-06-06: 0</title></rect><rect x="670" y="22" width="11" height="11" rx="2" fill="#8b8b96" opacity="0.18"><title>2026-06-07: 0</title></rect><rect x="670" y="36" width="11" height="11" rx="2" fill="#8b8b96" opacity="0.18"><title>2026-06-08: 0</title></rect><rect x="670" y="50" width="11" height="11" rx="2" fill="#8b8b96" opacity="0.18"><title>2026-06-09: 0</title></rect><rect x="670" y="64" width="11" height="11" rx="2" fill="#8b8b96" opacity="0.18"><title>2026-06-10: 0</title></rect><rect x="670" y="78" width="11" height="11" rx="2" fill="#8b8b96" opacity="0.18"><title>2026-06-11: 0</title></rect><rect x="670" y="92" width="11" height="11" rx="2" fill="#8b8b96" opacity="0.18"><title>2026-06-12: 0</title></rect><rect x="670" y="106" width="11" height="11" rx="2" fill="#8b8b96" opacity="0.18"><title>2026-06-13: 0</title></rect><rect x="684" y="22" width="11" height="11" rx="2" fill="#8b8b96" opacity="0.18"><title>2026-06-14: 0</title></rect><rect x="684" y="36" width="11" height="11" rx="2" fill="#8b8b96" opacity="0.18"><title>2026-06-15: 0</title></rect><rect x="684" y="50" width="11" height="11" rx="2" fill="#8b8b96" opacity="0.18"><title>2026-06-16: 0</title></rect><rect x="684" y="64" width="11" height="11" rx="2" fill="#8b8b96" opacity="0.18"><title>2026-06-17: 0</title></rect><rect x="684" y="78" width="11" height="11" rx="2" fill="#b890d9"><title>2026-06-18: 6</title></rect><rect x="684" y="92" width="11" height="11" rx="2" fill="#8b8b96" opacity="0.18"><title>2026-06-19: 0</title></rect><rect x="684" y="106" width="11" height="11" rx="2" fill="#8b8b96" opacity="0.18"><title>2026-06-20: 0</title></rect><rect x="698" y="22" width="11" height="11" rx="2" fill="#8b8b96" opacity="0.18"><title>2026-06-21: 0</title></rect><rect x="698" y="36" width="11" height="11" rx="2" fill="#4a3358"><title>2026-06-22: 1</title></rect><rect x="698" y="50" width="11" height="11" rx="2" fill="#8b8b96" opacity="0.18"><title>2026-06-23: 0</title></rect><rect x="698" y="64" width="11" height="11" rx="2" fill="#8b8b96" opacity="0.18"><title>2026-06-24: 0</title></rect><rect x="698" y="78" width="11" height="11" rx="2" fill="#4a3358"><title>2026-06-25: 1</title></rect><rect x="698" y="92" width="11" height="11" rx="2" fill="#8b8b96" opacity="0.18"><title>2026-06-26: 0</title></rect><rect x="698" y="106" width="11" height="11" rx="2" fill="#6d4a85"><title>2026-06-27: 2</title></rect><rect x="712" y="22" width="11" height="11" rx="2" fill="#8b8b96" opacity="0.18"><title>2026-06-28: 0</title></rect><rect x="712" y="36" width="11" height="11" rx="2" fill="#8b8b96" opacity="0.18"><title>2026-06-29: 0</title></rect><rect x="712" y="50" width="11" height="11" rx="2" fill="#8b8b96" opacity="0.18"><title>2026-06-30: 0</title></rect><rect x="712" y="64" width="11" height="11" rx="2" fill="#8b8b96" opacity="0.18"><title>2026-07-01: 0</title></rect><rect x="712" y="78" width="11" height="11" rx="2" fill="#8b8b96" opacity="0.18"><title>2026-07-02: 0</title></rect><rect x="712" y="92" width="11" height="11" rx="2" fill="#8b8b96" opacity="0.18"><title>2026-07-03: 0</title></rect><rect x="712" y="106" width="11" height="11" rx="2" fill="#8b8b96" opacity="0.18"><title>2026-07-04: 0</title></rect><rect x="726" y="22" width="11" height="11" rx="2" fill="#8b8b96" opacity="0.18"><title>2026-07-05: 0</title></rect><rect x="726" y="36" width="11" height="11" rx="2" fill="#8b8b96" opacity="0.18"><title>2026-07-06: 0</title></rect><rect x="726" y="50" width="11" height="11" rx="2" fill="#8b8b96" opacity="0.18"><title>2026-07-07: 0</title></rect><rect x="726" y="64" width="11" height="11" rx="2" fill="#8b8b96" opacity="0.18"><title>2026-07-08: 0</title></rect><rect x="726" y="78" width="11" height="11" rx="2" fill="#8b8b96" opacity="0.18"><title>2026-07-09: 0</title></rect><rect x="726" y="92" width="11" height="11" rx="2" fill="#b890d9"><title>2026-07-10: 7</title></rect><rect x="726" y="106" width="11" height="11" rx="2" fill="#9268b8"><title>2026-07-11: 4</title></rect><rect x="740" y="22" width="11" height="11" rx="2" fill="#b890d9"><title>2026-07-12: 12</title></rect><rect x="740" y="36" width="11" height="11" rx="2" fill="#9268b8"><title>2026-07-13: 5</title></rect><rect x="740" y="50" width="11" height="11" rx="2" fill="#8b8b96" opacity="0.18"><title>2026-07-14: 0</title></rect><rect x="740" y="64" width="11" height="11" rx="2" fill="#8b8b96" opacity="0.18"><title>2026-07-15: 0</title></rect><rect x="740" y="78" width="11" height="11" rx="2" fill="#8b8b96" opacity="0.18"><title>2026-07-16: 0</title></rect><rect x="740" y="92" width="11" height="11" rx="2" fill="#8b8b96" opacity="0.18"><title>2026-07-17: 0</title></rect><rect x="740" y="106" width="11" height="11" rx="2" fill="#b890d9"><title>2026-07-18: 24</title></rect><rect x="754" y="22" width="11" height="11" rx="2" fill="#b890d9"><title>2026-07-19: 6</title></rect>
</svg>