<svg xmlns="http://www.w3.org/2000/svg" width="480" height="140" viewBox="0 0 480 140" role="img" aria-label="Lenguajes mas usados">
<style>
.t{fill:#b890d9;font:bold 13px -apple-system,Segoe UI,sans-serif}
.n{fill:#8b8b96;font:11px -apple-system,Segoe UI,sans-serif}
.v{fill:#8b8b96;font:11px -apple-system,Segoe UI,sans-serif;opacity:.75}
</style>
<text x="0" y="14" class="t">Most used languages</text>
<rect x="0.0" y="26" width="135.2" height="10" fill="#b890d9" rx="2"/><rect x="135.2" y="26" width="112.2" height="10" fill="#a67fce" /><rect x="247.4" y="26" width="100.2" height="10" fill="#946ec3" /><rect x="347.6" y="26" width="84.5" height="10" fill="#825db8" /><rect x="432.2" y="26" width="41.8" height="10" fill="#6f4cad" /><rect x="474.0" y="26" width="4.0" height="10" fill="#5d3ba2" /><rect x="478.0" y="26" width="2.0" height="10" fill="#4a3358" rx="2"/><circle cx="5" cy="58" r="5" fill="#b890d9"/><text x="16" y="62" class="n">TypeScript</text><text x="130" y="62" class="v" text-anchor="end">592 kB</text><text x="195" y="62" class="v" text-anchor="end">28.2%</text><circle cx="245" cy="58" r="5" fill="#a67fce"/><text x="256" y="62" class="n">Astro</text><text x="370" y="62" class="v" text-anchor="end">491 kB</text><text x="435" y="62" class="v" text-anchor="end">23.4%</text><circle cx="5" cy="78" r="5" fill="#946ec3"/><text x="16" y="82" class="n">PHP</text><text x="130" y="82" class="v" text-anchor="end">439 kB</text><text x="195" y="82" class="v" text-anchor="end">20.9%</text><circle cx="245" cy="78" r="5" fill="#825db8"/><text x="256" y="82" class="n">Python</text><text x="370" y="82" class="v" text-anchor="end">370 kB</text><text x="435" y="82" class="v" text-anchor="end">17.6%</text><circle cx="5" cy="98" r="5" fill="#6f4cad"/><text x="16" y="102" class="n">JavaScript</text><text x="130" y="102" class="v" text-anchor="end">183 kB</text><text x="195" y="102" class="v" text-anchor="end">8.7%</text><circle cx="245" cy="98" r="5" fill="#5d3ba2"/><text x="256" y="102" class="n">Shell</text><text x="370" y="102" class="v" text-anchor="end">18 kB</text><text x="435" y="102" class="v" text-anchor="end">0.8%</text><circle cx="5" cy="118" r="5" fill="#4a3358"/><text x="16" y="122" class="n">PLpgSQL</text><text x="130" y="122" class="v" text-anchor="end">9 kB</text><text x="195" y="122" class="v" text-anchor="end">0.4%</text>
</svg>