<svg xmlns="http://www.w3.org/2000/svg" width="480" height="140" viewBox="0 0 480 140" role="img" aria-label="Lenguajes mas usados">
<style>
.t{fill:#b890d9;font:bold 13px -apple-system,Segoe UI,sans-serif}
.n{fill:#8b8b96;font:11px -apple-system,Segoe UI,sans-serif}
.v{fill:#8b8b96;font:11px -apple-system,Segoe UI,sans-serif;opacity:.75}
</style>
<text x="0" y="14" class="t">Most used languages</text>
<rect x="0.0" y="26" width="242.5" height="10" fill="#b890d9" rx="2"/><rect x="242.5" y="26" width="119.8" height="10" fill="#a67fce" /><rect x="362.3" y="26" width="29.9" height="10" fill="#946ec3" /><rect x="392.1" y="26" width="28.8" height="10" fill="#825db8" /><rect x="421.0" y="26" width="25.8" height="10" fill="#6f4cad" /><rect x="446.8" y="26" width="17.2" height="10" fill="#5d3ba2" /><rect x="464.0" y="26" width="16.0" height="10" fill="#4a3358" rx="2"/><circle cx="5" cy="58" r="5" fill="#b890d9"/><text x="16" y="62" class="n">JavaScript</text><text x="130" y="62" class="v" text-anchor="end">6.2 MB</text><text x="195" y="62" class="v" text-anchor="end">49.8%</text><circle cx="245" cy="58" r="5" fill="#a67fce"/><text x="256" y="62" class="n">TypeScript</text><text x="370" y="62" class="v" text-anchor="end">3.1 MB</text><text x="435" y="62" class="v" text-anchor="end">24.6%</text><circle cx="5" cy="78" r="5" fill="#946ec3"/><text x="16" y="82" class="n">Rust</text><text x="130" y="82" class="v" text-anchor="end">762 kB</text><text x="195" y="82" class="v" text-anchor="end">6.1%</text><circle cx="245" cy="78" r="5" fill="#825db8"/><text x="256" y="82" class="n">Astro</text><text x="370" y="82" class="v" text-anchor="end">735 kB</text><text x="435" y="82" class="v" text-anchor="end">5.9%</text><circle cx="5" cy="98" r="5" fill="#6f4cad"/><text x="16" y="102" class="n">Python</text><text x="130" y="102" class="v" text-anchor="end">659 kB</text><text x="195" y="102" class="v" text-anchor="end">5.3%</text><circle cx="245" cy="98" r="5" fill="#5d3ba2"/><text x="256" y="102" class="n">PHP</text><text x="370" y="102" class="v" text-anchor="end">439 kB</text><text x="435" y="102" class="v" text-anchor="end">3.5%</text><circle cx="5" cy="118" r="5" fill="#4a3358"/><text x="16" y="122" class="n">Swift</text><text x="130" y="122" class="v" text-anchor="end">409 kB</text><text x="195" y="122" class="v" text-anchor="end">3.3%</text>
</svg>